<svg xmlns="http://www.w3.org/2000/svg" xmlns:xlink="http://www.w3.org/1999/xlink" width="520" zoomAndPan="magnify" viewBox="0 0 390 119.999999" height="160" preserveAspectRatio="xMidYMid meet" version="1.0"><defs><g/></defs><g fill="#fb5139" fill-opacity="1"><g transform="translate(21.512906, 84.261414)"><g><path d="M 22.90625 -39.78125 C 28.113281 -39.78125 32.519531 -38.757812 36.125 -36.71875 C 39.738281 -34.6875 41.546875 -31.535156 41.546875 -27.265625 L 27.921875 -27.265625 C 27.921875 -28.679688 27.28125 -29.6875 26 -30.28125 C 25.125 -30.769531 24.019531 -31.015625 22.6875 -31.015625 C 19.15625 -31.015625 17.390625 -30.179688 17.390625 -28.515625 C 17.390625 -27.578125 18 -26.910156 19.21875 -26.515625 C 20.445312 -26.128906 22.460938 -25.710938 25.265625 -25.265625 C 28.703125 -24.773438 31.578125 -24.195312 33.890625 -23.53125 C 36.203125 -22.875 38.21875 -21.695312 39.9375 -20 C 41.65625 -18.300781 42.515625 -15.929688 42.515625 -12.890625 C 42.515625 -7.929688 40.660156 -4.394531 36.953125 -2.28125 C 33.242188 -0.164062 28.390625 0.890625 22.390625 0.890625 C 18.953125 0.890625 15.710938 0.410156 12.671875 -0.546875 C 9.628906 -1.503906 7.148438 -2.988281 5.234375 -5 C 3.316406 -7.019531 2.359375 -9.578125 2.359375 -12.671875 L 15.984375 -12.671875 L 15.984375 -12.375 C 16.035156 -10.707031 16.734375 -9.539062 18.078125 -8.875 C 19.429688 -8.21875 20.867188 -7.890625 22.390625 -7.890625 C 26.472656 -7.890625 28.515625 -8.84375 28.515625 -10.75 C 28.515625 -11.738281 27.875 -12.453125 26.59375 -12.890625 C 25.320312 -13.335938 23.234375 -13.804688 20.328125 -14.296875 C 16.847656 -14.878906 13.988281 -15.515625 11.75 -16.203125 C 9.519531 -16.890625 7.566406 -18.054688 5.890625 -19.703125 C 4.222656 -21.347656 3.390625 -23.644531 3.390625 -26.59375 C 3.390625 -31.351562 5.191406 -34.738281 8.796875 -36.75 C 12.410156 -38.769531 17.113281 -39.78125 22.90625 -39.78125 Z M 22.90625 -39.78125 "/></g></g></g><g fill="#fb5139" fill-opacity="1"><g transform="translate(62.324082, 84.261414)"><g><path d="M 31.53125 -38.90625 L 48.625 -38.90625 L 34.25 -23.203125 L 48.984375 0 L 32.34375 0 L 24.171875 -13.328125 L 19.078125 -8.40625 L 19.078125 0 L 4.421875 0 L 4.421875 -53.484375 L 19.078125 -53.484375 L 19.078125 -24.015625 Z M 31.53125 -38.90625 "/></g></g></g><g fill="#fb5139" fill-opacity="1"><g transform="translate(107.260576, 84.261414)"><g><path d="M 4.9375 -43.46875 L 4.9375 -53.40625 L 19.59375 -53.40625 L 19.59375 -43.46875 Z M 4.9375 0 L 4.9375 -38.90625 L 19.59375 -38.90625 L 19.59375 0 Z M 4.9375 0 "/></g></g></g><g fill="#fb5139" fill-opacity="1"><g transform="translate(127.592487, 84.261414)"><g><path d="M 4.9375 0 L 4.9375 -53.40625 L 19.59375 -53.40625 L 19.59375 0 Z M 4.9375 0 "/></g></g></g><g fill="#fb5139" fill-opacity="1"><g transform="translate(147.924398, 84.261414)"><g><path d="M 4.9375 0 L 4.9375 -53.40625 L 19.59375 -53.40625 L 19.59375 0 Z M 4.9375 0 "/></g></g></g><g fill="#fb5139" fill-opacity="1"><g transform="translate(168.256309, 84.261414)"><g><path d="M 22.90625 -39.78125 C 28.113281 -39.78125 32.519531 -38.757812 36.125 -36.71875 C 39.738281 -34.6875 41.546875 -31.535156 41.546875 -27.265625 L 27.921875 -27.265625 C 27.921875 -28.679688 27.28125 -29.6875 26 -30.28125 C 25.125 -30.769531 24.019531 -31.015625 22.6875 -31.015625 C 19.15625 -31.015625 17.390625 -30.179688 17.390625 -28.515625 C 17.390625 -27.578125 18 -26.910156 19.21875 -26.515625 C 20.445312 -26.128906 22.460938 -25.710938 25.265625 -25.265625 C 28.703125 -24.773438 31.578125 -24.195312 33.890625 -23.53125 C 36.203125 -22.875 38.21875 -21.695312 39.9375 -20 C 41.65625 -18.300781 42.515625 -15.929688 42.515625 -12.890625 C 42.515625 -7.929688 40.660156 -4.394531 36.953125 -2.28125 C 33.242188 -0.164062 28.390625 0.890625 22.390625 0.890625 C 18.953125 0.890625 15.710938 0.410156 12.671875 -0.546875 C 9.628906 -1.503906 7.148438 -2.988281 5.234375 -5 C 3.316406 -7.019531 2.359375 -9.578125 2.359375 -12.671875 L 15.984375 -12.671875 L 15.984375 -12.375 C 16.035156 -10.707031 16.734375 -9.539062 18.078125 -8.875 C 19.429688 -8.21875 20.867188 -7.890625 22.390625 -7.890625 C 26.472656 -7.890625 28.515625 -8.84375 28.515625 -10.75 C 28.515625 -11.738281 27.875 -12.453125 26.59375 -12.890625 C 25.320312 -13.335938 23.234375 -13.804688 20.328125 -14.296875 C 16.847656 -14.878906 13.988281 -15.515625 11.75 -16.203125 C 9.519531 -16.890625 7.566406 -18.054688 5.890625 -19.703125 C 4.222656 -21.347656 3.390625 -23.644531 3.390625 -26.59375 C 3.390625 -31.351562 5.191406 -34.738281 8.796875 -36.75 C 12.410156 -38.769531 17.113281 -39.78125 22.90625 -39.78125 Z M 22.90625 -39.78125 "/></g></g></g><g fill="#fb5139" fill-opacity="1"><g transform="translate(209.067485, 84.261414)"><g><path d="M 40.96875 0 L 34.921875 -21.65625 L 34.625 -21.65625 L 28.515625 0 L 14.21875 0 L 0 -38.90625 L 15.765625 -38.90625 L 21.65625 -15.90625 L 22.171875 -15.90625 L 28.296875 -38.90625 L 42.875 -38.90625 L 48.765625 -15.90625 L 49.28125 -15.90625 L 55.25 -38.90625 L 69.546875 -38.90625 L 55.25 0 Z M 40.96875 0 "/></g></g></g><g fill="#fb5139" fill-opacity="1"><g transform="translate(274.409553, 84.261414)"><g><path d="M 23.65625 -39.78125 C 29.59375 -39.78125 34.425781 -38.785156 38.15625 -36.796875 C 41.894531 -34.804688 43.765625 -31.578125 43.765625 -27.109375 L 43.765625 -11.9375 C 43.765625 -11.101562 43.957031 -10.414062 44.34375 -9.875 C 44.738281 -9.332031 45.332031 -9.0625 46.125 -9.0625 L 48.765625 -9.0625 L 48.765625 -0.59375 C 48.617188 -0.488281 48.238281 -0.328125 47.625 -0.109375 C 47.007812 0.109375 46.132812 0.328125 45 0.546875 C 43.875 0.773438 42.578125 0.890625 41.109375 0.890625 C 38.253906 0.890625 35.90625 0.460938 34.0625 -0.390625 C 32.226562 -1.253906 30.96875 -2.453125 30.28125 -3.984375 C 28.414062 -2.503906 26.328125 -1.320312 24.015625 -0.4375 C 21.703125 0.445312 19 0.890625 15.90625 0.890625 C 6.769531 0.890625 2.203125 -2.742188 2.203125 -10.015625 C 2.203125 -13.796875 3.222656 -16.679688 5.265625 -18.671875 C 7.304688 -20.660156 10.238281 -22.023438 14.0625 -22.765625 C 17.894531 -23.503906 22.90625 -23.875 29.09375 -23.875 L 29.09375 -25.78125 C 29.09375 -27.300781 28.566406 -28.453125 27.515625 -29.234375 C 26.460938 -30.023438 25.097656 -30.421875 23.421875 -30.421875 C 21.898438 -30.421875 20.585938 -30.148438 19.484375 -29.609375 C 18.378906 -29.078125 17.828125 -28.21875 17.828125 -27.03125 L 17.828125 -26.75 L 3.390625 -26.75 C 3.335938 -26.988281 3.3125 -27.332031 3.3125 -27.78125 C 3.3125 -31.457031 5.066406 -34.375 8.578125 -36.53125 C 12.085938 -38.695312 17.113281 -39.78125 23.65625 -39.78125 Z M 29.09375 -16.9375 C 24.925781 -16.9375 21.847656 -16.484375 19.859375 -15.578125 C 17.867188 -14.671875 16.875 -13.457031 16.875 -11.9375 C 16.875 -9.476562 18.539062 -8.25 21.875 -8.25 C 23.789062 -8.25 25.472656 -8.765625 26.921875 -9.796875 C 28.367188 -10.828125 29.09375 -12.101562 29.09375 -13.625 Z M 29.09375 -16.9375 "/></g></g></g><g fill="#fb5139" fill-opacity="1"><g transform="translate(319.346047, 84.261414)"><g><path d="M 30.0625 -39.78125 C 35.3125 -39.78125 39.359375 -38.0625 42.203125 -34.625 C 45.054688 -31.1875 46.484375 -26.101562 46.484375 -19.375 C 46.484375 -12.695312 45.054688 -7.648438 42.203125 -4.234375 C 39.359375 -0.816406 35.3125 0.890625 30.0625 0.890625 C 25.539062 0.890625 21.90625 -0.582031 19.15625 -3.53125 L 19.15625 14.515625 L 4.5 14.515625 L 4.5 -38.90625 L 16.421875 -38.90625 L 17.6875 -33.375 C 20.53125 -37.644531 24.65625 -39.78125 30.0625 -39.78125 Z M 25.484375 -28.953125 C 23.328125 -28.953125 21.707031 -28.191406 20.625 -26.671875 C 19.539062 -25.148438 19 -23.160156 19 -20.703125 L 19 -18.265625 C 19 -15.816406 19.539062 -13.816406 20.625 -12.265625 C 21.707031 -10.722656 23.328125 -9.953125 25.484375 -9.953125 C 29.710938 -9.953125 31.828125 -12.476562 31.828125 -17.53125 L 31.828125 -21.4375 C 31.828125 -26.445312 29.710938 -28.953125 25.484375 -28.953125 Z M 25.484375 -28.953125 "/></g></g></g></svg>